<?xml version="1.0" encoding="UTF-8" standalone="no"?>
<!DOCTYPE svg PUBLIC "-//W3C//DTD SVG 1.1//EN"
 "http://www.w3.org/Graphics/SVG/1.1/DTD/svg11.dtd">
<!-- Generated by graphviz version 12.0.0 (20240704.0754)
 -->
<!-- Title: Graphical Class Hierarchy Pages: 1 -->
<svg width="248pt" height="104pt"
 viewBox="0.00 0.00 247.75 104.00" xmlns="http://www.w3.org/2000/svg" xmlns:xlink="http://www.w3.org/1999/xlink">
<g id="graph0" class="graph" transform="scale(1 1) rotate(0) translate(4 100)">
<title>Graphical Class Hierarchy</title>
<!-- Node0 -->
<g id="Node000000" class="node">
<title>Node0</title>
<g id="a_Node000000"><a xlink:title=" ">
<polygon fill="#e0e0e0" stroke="#999999" points="70,-58 0,-58 0,-38 70,-38 70,-58"/>
<text text-anchor="middle" x="35" y="-44.5" font-family="Helvetica,sans-Serif" font-size="10.00">testing::Test</text>
</a>
</g>
</g>
<!-- Node1 -->
<g id="Node000001" class="node">
<title>Node1</title>
<g id="a_Node000001"><a xlink:href="class_inventory_optimizer_test.html" target="_top" xlink:title=" ">
<polygon fill="white" stroke="#666666" points="230.38,-96 115.38,-96 115.38,-76 230.38,-76 230.38,-96"/>
<text text-anchor="middle" x="172.88" y="-82.5" font-family="Helvetica,sans-Serif" font-size="10.00">InventoryOptimizerTest</text>
</a>
</g>
</g>
<!-- Node0&#45;&gt;Node1 -->
<g id="edge1_Node000000_Node000001" class="edge">
<title>Node0&#45;&gt;Node1</title>
<g id="a_edge1_Node000000_Node000001"><a xlink:title=" ">
<path fill="none" stroke="#63b8ff" d="M81.31,-60.67C98.66,-65.53 118.24,-71 134.74,-75.61"/>
<polygon fill="#63b8ff" stroke="#63b8ff" points="82.32,-57.32 71.74,-58 80.43,-64.06 82.32,-57.32"/>
</a>
</g>
</g>
<!-- Node2 -->
<g id="Node000002" class="node">
<title>Node2</title>
<g id="a_Node000002"><a xlink:href="class_maintenance_scheduler_test.html" target="_top" xlink:title=" ">
<polygon fill="white" stroke="#666666" points="239.75,-58 106,-58 106,-38 239.75,-38 239.75,-58"/>
<text text-anchor="middle" x="172.88" y="-44.5" font-family="Helvetica,sans-Serif" font-size="10.00">MaintenanceSchedulerTest</text>
</a>
</g>
</g>
<!-- Node0&#45;&gt;Node2 -->
<g id="edge2_Node000000_Node000002" class="edge">
<title>Node0&#45;&gt;Node2</title>
<g id="a_edge2_Node000000_Node000002"><a xlink:title=" ">
<path fill="none" stroke="#63b8ff" d="M81.59,-48C89.3,-48 97.44,-48 105.55,-48"/>
<polygon fill="#63b8ff" stroke="#63b8ff" points="81.8,-44.5 71.8,-48 81.8,-51.5 81.8,-44.5"/>
</a>
</g>
</g>
<!-- Node3 -->
<g id="Node000003" class="node">
<title>Node3</title>
<g id="a_Node000003"><a xlink:href="class_sensor_analytics_test.html" target="_top" xlink:title=" ">
<polygon fill="white" stroke="#666666" points="225.88,-20 119.88,-20 119.88,0 225.88,0 225.88,-20"/>
<text text-anchor="middle" x="172.88" y="-6.5" font-family="Helvetica,sans-Serif" font-size="10.00">SensorAnalyticsTest</text>
</a>
</g>
</g>
<!-- Node0&#45;&gt;Node3 -->
<g id="edge3_Node000000_Node000003" class="edge">
<title>Node0&#45;&gt;Node3</title>
<g id="a_edge3_Node000000_Node000003"><a xlink:title=" ">
<path fill="none" stroke="#63b8ff" d="M81.31,-35.33C98.66,-30.47 118.24,-25 134.74,-20.39"/>
<polygon fill="#63b8ff" stroke="#63b8ff" points="80.43,-31.94 71.74,-38 82.32,-38.68 80.43,-31.94"/>
</a>
</g>
</g>
</g>
</svg>
