<?xml version="1.0" encoding="UTF-8" standalone="no"?>
<!DOCTYPE svg PUBLIC "-//W3C//DTD SVG 1.1//EN"
 "http://www.w3.org/Graphics/SVG/1.1/DTD/svg11.dtd">
<!-- Generated by graphviz version 2.43.0 (0)
 -->
<!-- Title: src/smart_maintenance_suite_app/src Pages: 1 -->
<svg width="173pt" height="151pt"
 viewBox="0.00 0.00 173.00 151.00" xmlns="http://www.w3.org/2000/svg" xmlns:xlink="http://www.w3.org/1999/xlink">
<g id="graph0" class="graph" transform="scale(1 1) rotate(0) translate(4 147)">
<title>src/smart_maintenance_suite_app/src</title>
<polygon fill="white" stroke="transparent" points="-4,4 -4,-147 169,-147 169,4 -4,4"/>
<g id="clust1" class="cluster">
<title>clusterdir_3238ec1e7a4c1eeb6b28bbc4f4fab3ee</title>
<g id="a_clust1"><a xlink:href="dir_3238ec1e7a4c1eeb6b28bbc4f4fab3ee.html" target="_top" xlink:title="smart_maintenance_suite_app">
<polygon fill="#ddddee" stroke="black" points="8,-64 8,-135 157,-135 157,-64 8,-64"/>
<text text-anchor="middle" x="82.5" y="-123" font-family="Helvetica,sans-Serif" font-size="10.00">smart_maintenance_suite_app</text>
</a>
</g>
</g>
<!-- dir_0fb7d451f69ed3b346e8c8624f47e6d6 -->
<g id="node1" class="node">
<title>dir_0fb7d451f69ed3b346e8c8624f47e6d6</title>
<g id="a_node1"><a xlink:href="dir_0fb7d451f69ed3b346e8c8624f47e6d6.html" target="_top" xlink:title="src">
<polygon fill="#eeeeff" stroke="black" points="109,-108 55,-108 55,-72 109,-72 109,-108"/>
<text text-anchor="middle" x="82" y="-87.5" font-family="Helvetica,sans-Serif" font-size="10.00">src</text>
</a>
</g>
</g>
<!-- dir_1cbee9d832be633a1be123ab168c5281 -->
<g id="node2" class="node">
<title>dir_1cbee9d832be633a1be123ab168c5281</title>
<g id="a_node2"><a xlink:href="dir_1cbee9d832be633a1be123ab168c5281.html" target="_top" xlink:title="smart_maintenance_suite">
<polygon fill="white" stroke="red" points="146,-36 18,-36 18,0 146,0 146,-36"/>
<text text-anchor="middle" x="82" y="-15.5" font-family="Helvetica,sans-Serif" font-size="10.00">smart_maintenance_suite</text>
</a>
</g>
</g>
<!-- dir_0fb7d451f69ed3b346e8c8624f47e6d6&#45;&gt;dir_1cbee9d832be633a1be123ab168c5281 -->
<g id="edge1" class="edge">
<title>dir_0fb7d451f69ed3b346e8c8624f47e6d6&#45;&gt;dir_1cbee9d832be633a1be123ab168c5281</title>
<path fill="none" stroke="black" d="M82,-71.7C82,-63.98 82,-54.71 82,-46.11"/>
<polygon fill="black" stroke="black" points="85.5,-46.1 82,-36.1 78.5,-46.1 85.5,-46.1"/>
<g id="a_edge1&#45;headlabel"><a xlink:href="dir_000006_000001.html" target="_top" xlink:title="1">
<text text-anchor="middle" x="88.34" y="-47.2" font-family="Helvetica,sans-Serif" font-size="10.00">1</text>
</a>
</g>
</g>
</g>
</svg>
