<?xml version="1.0" encoding="UTF-8" standalone="no"?>
<!DOCTYPE svg PUBLIC "-//W3C//DTD SVG 1.1//EN"
 "http://www.w3.org/Graphics/SVG/1.1/DTD/svg11.dtd">
<!-- Generated by graphviz version 2.43.0 (0)
 -->
<!-- Title: src/smart_maintenance_suite/src/smart_maintenance_suite.cpp Pages: 1 -->
<svg width="206pt" height="184pt"
 viewBox="0.00 0.00 206.00 184.00" xmlns="http://www.w3.org/2000/svg" xmlns:xlink="http://www.w3.org/1999/xlink">
<g id="graph0" class="graph" transform="scale(1 1) rotate(0) translate(4 180)">
<title>src/smart_maintenance_suite/src/smart_maintenance_suite.cpp</title>
<polygon fill="white" stroke="transparent" points="-4,4 -4,-180 202,-180 202,4 -4,4"/>
<!-- Node1 -->
<g id="node1" class="node">
<title>Node1</title>
<g id="a_node1"><a xlink:title=" ">
<polygon fill="#bfbfbf" stroke="black" points="47.5,-134.5 47.5,-175.5 195.5,-175.5 195.5,-134.5 47.5,-134.5"/>
<text text-anchor="start" x="55.5" y="-163.5" font-family="Helvetica,sans-Serif" font-size="10.00">src/smart_maintenance</text>
<text text-anchor="start" x="55.5" y="-152.5" font-family="Helvetica,sans-Serif" font-size="10.00">_suite/src/smart_maintenance</text>
<text text-anchor="middle" x="121.5" y="-141.5" font-family="Helvetica,sans-Serif" font-size="10.00">_suite.cpp</text>
</a>
</g>
</g>
<!-- Node2 -->
<g id="node2" class="node">
<title>Node2</title>
<g id="a_node2"><a xlink:href="smart__maintenance__suite_8h.html" target="_top" xlink:title="Provides functions for math. utilities.">
<polygon fill="white" stroke="black" points="0,-67.5 0,-97.5 143,-97.5 143,-67.5 0,-67.5"/>
<text text-anchor="start" x="8" y="-85.5" font-family="Helvetica,sans-Serif" font-size="10.00">../header/smart_maintenance</text>
<text text-anchor="middle" x="71.5" y="-74.5" font-family="Helvetica,sans-Serif" font-size="10.00">_suite.h</text>
</a>
</g>
</g>
<!-- Node1&#45;&gt;Node2 -->
<g id="edge1" class="edge">
<title>Node1&#45;&gt;Node2</title>
<path fill="none" stroke="midnightblue" d="M107.57,-134.36C101.35,-125.59 93.99,-115.21 87.54,-106.12"/>
<polygon fill="midnightblue" stroke="midnightblue" points="90.35,-104.02 81.71,-97.89 84.64,-108.07 90.35,-104.02"/>
</g>
<!-- Node4 -->
<g id="node4" class="node">
<title>Node4</title>
<g id="a_node4"><a xlink:title=" ">
<polygon fill="white" stroke="#bfbfbf" points="139,-6 139,-25 198,-25 198,-6 139,-6"/>
<text text-anchor="middle" x="168.5" y="-13" font-family="Helvetica,sans-Serif" font-size="10.00">stdexcept</text>
</a>
</g>
</g>
<!-- Node1&#45;&gt;Node4 -->
<g id="edge4" class="edge">
<title>Node1&#45;&gt;Node4</title>
<path fill="none" stroke="midnightblue" d="M134.43,-134.24C140.72,-123.83 147.89,-110.63 152.5,-98 160.05,-77.31 164.28,-52.29 166.47,-35.48"/>
<polygon fill="midnightblue" stroke="midnightblue" points="169.98,-35.65 167.68,-25.31 163.03,-34.82 169.98,-35.65"/>
</g>
<!-- Node3 -->
<g id="node3" class="node">
<title>Node3</title>
<g id="a_node3"><a xlink:title=" ">
<polygon fill="white" stroke="#bfbfbf" points="25.5,-0.5 25.5,-30.5 117.5,-30.5 117.5,-0.5 25.5,-0.5"/>
<text text-anchor="start" x="33.5" y="-18.5" font-family="Helvetica,sans-Serif" font-size="10.00">../../utility/header</text>
<text text-anchor="middle" x="71.5" y="-7.5" font-family="Helvetica,sans-Serif" font-size="10.00">/commonTypes.h</text>
</a>
</g>
</g>
<!-- Node2&#45;&gt;Node3 -->
<g id="edge2" class="edge">
<title>Node2&#45;&gt;Node3</title>
<path fill="none" stroke="midnightblue" d="M71.5,-67.4C71.5,-59.64 71.5,-49.81 71.5,-40.86"/>
<polygon fill="midnightblue" stroke="midnightblue" points="75,-40.58 71.5,-30.58 68,-40.58 75,-40.58"/>
</g>
<!-- Node2&#45;&gt;Node4 -->
<g id="edge3" class="edge">
<title>Node2&#45;&gt;Node4</title>
<path fill="none" stroke="midnightblue" d="M92.55,-67.4C108.81,-56.5 131.22,-41.48 147.48,-30.58"/>
<polygon fill="midnightblue" stroke="midnightblue" points="149.45,-33.48 155.8,-25.01 145.55,-27.67 149.45,-33.48"/>
</g>
</g>
</svg>
