<?xml version="1.0" encoding="UTF-8" standalone="no"?>
<!DOCTYPE svg PUBLIC "-//W3C//DTD SVG 1.1//EN"
 "http://www.w3.org/Graphics/SVG/1.1/DTD/svg11.dtd">
<!-- Generated by graphviz version 12.0.0 (20240704.0754)
 -->
<!-- Title: SmartMaintenance::Analytics::MaintenanceScheduler Pages: 1 -->
<svg width="149pt" height="104pt"
 viewBox="0.00 0.00 149.00 104.00" xmlns="http://www.w3.org/2000/svg" xmlns:xlink="http://www.w3.org/1999/xlink">
<g id="graph0" class="graph" transform="scale(1 1) rotate(0) translate(4 100)">
<title>SmartMaintenance::Analytics::MaintenanceScheduler</title>
<!-- Node1 -->
<g id="Node000001" class="node">
<title>Node1</title>
<g id="a_Node000001"><a xlink:title="Provides maintenance scheduling and cost optimization utilities.">
<polygon fill="#999999" stroke="none" points="141,-96 0,-96 0,0 141,0 141,-96"/>
<text text-anchor="start" x="6.38" y="-82.5" font-family="Helvetica,sans-Serif" font-size="10.00">SmartMaintenance::Analytics</text>
<text text-anchor="start" x="18" y="-70.5" font-family="Helvetica,sans-Serif" font-size="10.00">::MaintenanceScheduler</text>
<text text-anchor="start" x="69" y="-54.5" font-family="Helvetica,sans-Serif" font-size="10.00"> </text>
<text text-anchor="start" x="4" y="-38.5" font-family="Helvetica,sans-Serif" font-size="10.00">+</text>
<text text-anchor="start" x="14" y="-38.5" font-family="Helvetica,sans-Serif" font-size="10.00">calculateOptimalInterval()</text>
<text text-anchor="start" x="4" y="-22.5" font-family="Helvetica,sans-Serif" font-size="10.00">+</text>
<text text-anchor="start" x="14" y="-22.5" font-family="Helvetica,sans-Serif" font-size="10.00">calculateTotalCost()</text>
<text text-anchor="start" x="4" y="-6.5" font-family="Helvetica,sans-Serif" font-size="10.00">+</text>
<text text-anchor="start" x="14" y="-6.5" font-family="Helvetica,sans-Serif" font-size="10.00">assessMaintenancePriority()</text>
<polygon fill="#666666" stroke="#666666" points="0,-66 0,-66 141,-66 141,-66 0,-66"/>
<polygon fill="#666666" stroke="#666666" points="0,-50 0,-50 141,-50 141,-50 0,-50"/>
<polygon fill="none" stroke="#666666" points="0,0 0,-96 141,-96 141,0 0,0"/>
</a>
</g>
</g>
</g>
</svg>
