<?xml version="1.0" encoding="UTF-8" standalone="no"?>
<!DOCTYPE svg PUBLIC "-//W3C//DTD SVG 1.1//EN"
 "http://www.w3.org/Graphics/SVG/1.1/DTD/svg11.dtd">
<!-- Generated by graphviz version 12.0.0 (20240704.0754)
 -->
<!-- Title: src/smart_maintenance_suite_app/src/smart_maintenance_suite_app.cpp Pages: 1 -->
<!--zoomable 200 -->

<svg id="main" version="1.1" xmlns="http://www.w3.org/2000/svg" xmlns:xlink="http://www.w3.org/1999/xlink" xml:space="preserve" onload="init(evt)">
<style type="text/css"><![CDATA[
.node, .edge {opacity: 0.7;}
.node.selected, .edge.selected {opacity: 1;}
.edge:hover path { stroke: red; }
.edge:hover polygon { stroke: red; fill: red; }
]]></style>

<defs>
  <circle id="rim" cx="0" cy="0" r="7"/>
  <circle id="rim2" cx="0" cy="0" r="3.5"/>
  <g id="zoomPlus">
    <use xlink:href="#rim" fill="#404040"><set attributeName="fill" to="#808080" begin="zoomplus.mouseover" end="zoomplus.mouseout"/></use>
    <path d="M-4,0h8M0,-4v8" fill="none" stroke="white" stroke-width="1.5" pointer-events="none"/>
  </g>
  <g id="zoomMin">
    <use xlink:href="#rim" fill="#404040"><set attributeName="fill" to="#808080" begin="zoomminus.mouseover" end="zoomminus.mouseout"/></use>
    <path d="M-4,0h8" fill="none" stroke="white" stroke-width="1.5" pointer-events="none"/>
  </g>
  <g id="arrowUp" transform="translate(30 24)">
    <use xlink:href="#rim"/>
    <path pointer-events="none" fill="none" stroke="white" stroke-width="1.5" d="M0,-3.0v7 M-2.5,-0.5L0,-3.0L2.5,-0.5"/>
  </g>
  <g id="arrowRight" transform="rotate(90) translate(36 -43)">
    <use xlink:href="#rim"/>
    <path pointer-events="none" fill="none" stroke="white" stroke-width="1.5" d="M0,-3.0v7 M-2.5,-0.5L0,-3.0L2.5,-0.5"/>
  </g>
  <g id="arrowDown" transform="rotate(180) translate(-30 -48)">
    <use xlink:href="#rim"/>
    <path pointer-events="none" fill="none" stroke="white" stroke-width="1.5" d="M0,-3.0v7 M-2.5,-0.5L0,-3.0L2.5,-0.5"/>
  </g>
  <g id="arrowLeft" transform="rotate(270) translate(-36 17)">
    <use xlink:href="#rim"/>
    <path pointer-events="none" fill="none" stroke="white" stroke-width="1.5" d="M0,-3.0v7 M-2.5,-0.5L0,-3.0L2.5,-0.5"/>
  </g>
  <g id="resetDef">
    <use xlink:href="#rim2" fill="#404040"><set attributeName="fill" to="#808080" begin="reset.mouseover" end="reset.mouseout"/></use>
  </g>
</defs>
<script type="application/ecmascript">
var viewWidth = 576;
var viewHeight = 200;
var sectionId = 'dynsection-0';
</script>
<script type="application/ecmascript" xlink:href="svg.min.js"/>
<svg id="graph" class="graph">
<g id="viewport">
<title>src/smart_maintenance_suite_app/src/smart_maintenance_suite_app.cpp</title>
<!-- Node1 -->
<g id="Node000001" class="node">
<title>Node1</title>
<g id="a_Node000001"><a xlink:title="Smart Maintenance Suite &#45; Demo Application Implementation.">
<polygon fill="#999999" stroke="#666666" points="404.5,-192 261.75,-192 261.75,-148 404.5,-148 404.5,-192"/>
<text text-anchor="start" x="269.75" y="-178.5" font-family="Helvetica,sans-Serif" font-size="10.00">src/smart_maintenance</text>
<text text-anchor="start" x="269.75" y="-166.5" font-family="Helvetica,sans-Serif" font-size="10.00">_suite_app/src/smart</text>
<text text-anchor="middle" x="333.12" y="-154.5" font-family="Helvetica,sans-Serif" font-size="10.00">_maintenance_suite_app.cpp</text>
</a>
</g>
</g>
<!-- Node2 -->
<g id="Node000002" class="node">
<title>Node2</title>
<g id="a_Node000002"><a xlink:href="smart__maintenance__suite__app_8h.html" target="_top" xlink:title="Header file for Smart Maintenance Suite Demo Application.">
<polygon fill="white" stroke="#666666" points="132.25,-112 0,-112 0,-68 132.25,-68 132.25,-112"/>
<text text-anchor="start" x="8" y="-98.5" font-family="Helvetica,sans-Serif" font-size="10.00">../../smart_maintenance</text>
<text text-anchor="start" x="8" y="-86.5" font-family="Helvetica,sans-Serif" font-size="10.00">_suite_app/header/smart</text>
<text text-anchor="middle" x="66.12" y="-74.5" font-family="Helvetica,sans-Serif" font-size="10.00">_maintenance_suite_app.h</text>
</a>
</g>
</g>
<!-- Node1&#45;&gt;Node2 -->
<g id="edge1_Node000001_Node000002" class="edge">
<title>Node1&#45;&gt;Node2</title>
<g id="a_edge1_Node000001_Node000002"><a xlink:title=" ">
<path fill="none" stroke="#63b8ff" d="M261.57,-148.1C225.02,-137.42 180.5,-124.41 143.19,-113.51"/>
<polygon fill="#63b8ff" stroke="#63b8ff" points="144.4,-110.22 133.82,-110.78 142.44,-116.94 144.4,-110.22"/>
</a>
</g>
</g>
<!-- Node3 -->
<g id="Node000003" class="node">
<title>Node3</title>
<g id="a_Node000003"><a xlink:title=" ">
<polygon fill="#e0e0e0" stroke="#999999" points="180.12,-26 140.12,-26 140.12,-6 180.12,-6 180.12,-26"/>
<text text-anchor="middle" x="160.12" y="-12.5" font-family="Helvetica,sans-Serif" font-size="10.00">string</text>
</a>
</g>
</g>
<!-- Node1&#45;&gt;Node3 -->
<g id="edge9_Node000001_Node000003" class="edge">
<title>Node1&#45;&gt;Node3</title>
<g id="a_edge9_Node000001_Node000003"><a xlink:title=" ">
<path fill="none" stroke="#63b8ff" d="M261.45,-158.23C231.93,-150.22 199.86,-136.28 179.12,-112 161.49,-91.35 158.54,-58.95 158.77,-37.84"/>
<polygon fill="#63b8ff" stroke="#63b8ff" points="162.27,-38 159.16,-27.88 155.27,-37.73 162.27,-38"/>
</a>
</g>
</g>
<!-- Node4 -->
<g id="Node000004" class="node">
<title>Node4</title>
<g id="a_Node000004"><a xlink:href="smart__maintenance__suite_8h.html" target="_top" xlink:title="Smart Maintenance Suite &#45; Core Utility Library.">
<polygon fill="white" stroke="#666666" points="351.62,-112 188.62,-112 188.62,-68 351.62,-68 351.62,-112"/>
<text text-anchor="start" x="196.62" y="-98.5" font-family="Helvetica,sans-Serif" font-size="10.00">../../smart_maintenance</text>
<text text-anchor="start" x="196.62" y="-86.5" font-family="Helvetica,sans-Serif" font-size="10.00">_suite/header/smart_maintenance</text>
<text text-anchor="middle" x="270.12" y="-74.5" font-family="Helvetica,sans-Serif" font-size="10.00">_suite.h</text>
</a>
</g>
</g>
<!-- Node1&#45;&gt;Node4 -->
<g id="edge3_Node000001_Node000004" class="edge">
<title>Node1&#45;&gt;Node4</title>
<g id="a_edge3_Node000001_Node000004"><a xlink:title=" ">
<path fill="none" stroke="#63b8ff" d="M315.91,-147.69C309.31,-139.52 301.65,-130.04 294.51,-121.19"/>
<polygon fill="#63b8ff" stroke="#63b8ff" points="297.28,-119.05 288.27,-113.47 291.83,-123.44 297.28,-119.05"/>
</a>
</g>
</g>
<!-- Node6 -->
<g id="Node000006" class="node">
<title>Node6</title>
<g id="a_Node000006"><a xlink:title=" ">
<polygon fill="#e0e0e0" stroke="#999999" points="422.88,-100 369.38,-100 369.38,-80 422.88,-80 422.88,-100"/>
<text text-anchor="middle" x="396.12" y="-86.5" font-family="Helvetica,sans-Serif" font-size="10.00">iostream</text>
</a>
</g>
</g>
<!-- Node1&#45;&gt;Node6 -->
<g id="edge6_Node000001_Node000006" class="edge">
<title>Node1&#45;&gt;Node6</title>
<g id="a_edge6_Node000001_Node000006"><a xlink:title=" ">
<path fill="none" stroke="#63b8ff" d="M350.34,-147.69C360.13,-135.56 372.26,-120.55 381.57,-109.02"/>
<polygon fill="#63b8ff" stroke="#63b8ff" points="384.11,-111.45 387.67,-101.47 378.66,-107.05 384.11,-111.45"/>
</a>
</g>
</g>
<!-- Node7 -->
<g id="Node000007" class="node">
<title>Node7</title>
<g id="a_Node000007"><a xlink:title=" ">
<polygon fill="#e0e0e0" stroke="#999999" points="491,-100 441.25,-100 441.25,-80 491,-80 491,-100"/>
<text text-anchor="middle" x="466.12" y="-86.5" font-family="Helvetica,sans-Serif" font-size="10.00">iomanip</text>
</a>
</g>
</g>
<!-- Node1&#45;&gt;Node7 -->
<g id="edge7_Node000001_Node000007" class="edge">
<title>Node1&#45;&gt;Node7</title>
<g id="a_edge7_Node000001_Node000007"><a xlink:title=" ">
<path fill="none" stroke="#63b8ff" d="M370.89,-147.62C389.42,-137.04 412.03,-123.99 432.12,-112 435.18,-110.18 438.38,-108.24 441.54,-106.31"/>
<polygon fill="#63b8ff" stroke="#63b8ff" points="443.32,-109.32 450,-101.09 439.65,-103.36 443.32,-109.32"/>
</a>
</g>
</g>
<!-- Node8 -->
<g id="Node000008" class="node">
<title>Node8</title>
<g id="a_Node000008"><a xlink:title=" ">
<polygon fill="#e0e0e0" stroke="#999999" points="567.5,-100 508.75,-100 508.75,-80 567.5,-80 567.5,-100"/>
<text text-anchor="middle" x="538.12" y="-86.5" font-family="Helvetica,sans-Serif" font-size="10.00">stdexcept</text>
</a>
</g>
</g>
<!-- Node1&#45;&gt;Node8 -->
<g id="edge8_Node000001_Node000008" class="edge">
<title>Node1&#45;&gt;Node8</title>
<g id="a_edge8_Node000001_Node000008"><a xlink:title=" ">
<path fill="none" stroke="#63b8ff" d="M404.88,-147.58C434.78,-137.86 469.59,-125.52 500.12,-112 504.27,-110.16 508.57,-108.03 512.71,-105.84"/>
<polygon fill="#63b8ff" stroke="#63b8ff" points="514.15,-109.05 521.22,-101.16 510.77,-102.92 514.15,-109.05"/>
</a>
</g>
</g>
<!-- Node2&#45;&gt;Node3 -->
<g id="edge2_Node000002_Node000003" class="edge">
<title>Node2&#45;&gt;Node3</title>
<g id="a_edge2_Node000002_Node000003"><a xlink:title=" ">
<path fill="none" stroke="#63b8ff" d="M94.07,-67.59C108.53,-56.52 125.89,-43.23 139.18,-33.05"/>
<polygon fill="#63b8ff" stroke="#63b8ff" points="141.02,-36.04 146.83,-27.18 136.77,-30.48 141.02,-36.04"/>
</a>
</g>
</g>
<!-- Node4&#45;&gt;Node3 -->
<g id="edge5_Node000004_Node000003" class="edge">
<title>Node4&#45;&gt;Node3</title>
<g id="a_edge5_Node000004_Node000003"><a xlink:title=" ">
<path fill="none" stroke="#63b8ff" d="M237.42,-67.59C220.28,-56.37 199.65,-42.87 184.02,-32.64"/>
<polygon fill="#63b8ff" stroke="#63b8ff" points="186.11,-29.83 175.83,-27.28 182.28,-35.68 186.11,-29.83"/>
</a>
</g>
</g>
<!-- Node5 -->
<g id="Node000005" class="node">
<title>Node5</title>
<g id="a_Node000005"><a xlink:title=" ">
<polygon fill="#e0e0e0" stroke="#999999" points="315.62,-32 224.62,-32 224.62,0 315.62,0 315.62,-32"/>
<text text-anchor="start" x="232.62" y="-18.5" font-family="Helvetica,sans-Serif" font-size="10.00">../../utility/header</text>
<text text-anchor="middle" x="270.12" y="-6.5" font-family="Helvetica,sans-Serif" font-size="10.00">/commonTypes.h</text>
</a>
</g>
</g>
<!-- Node4&#45;&gt;Node5 -->
<g id="edge4_Node000004_Node000005" class="edge">
<title>Node4&#45;&gt;Node5</title>
<g id="a_edge4_Node000004_Node000005"><a xlink:title=" ">
<path fill="none" stroke="#63b8ff" d="M270.12,-67.79C270.12,-60.18 270.12,-51.52 270.12,-43.52"/>
<polygon fill="#63b8ff" stroke="#63b8ff" points="273.63,-43.64 270.13,-33.64 266.63,-43.64 273.63,-43.64"/>
</a>
</g>
</g>
</g>
</svg>

<g id="navigator" transform="translate(0 0)" fill="#404254">
  <rect fill="#f2f5e9" fill-opacity="0.5" stroke="#606060" stroke-width=".5" x="0" y="0" width="60" height="60"/>
  <use id="zoomplus" xlink:href="#zoomPlus" x="17" y="9" onmousedown="handleZoom(evt,'in')"/>
  <use id="zoomminus" xlink:href="#zoomMin" x="42" y="9" onmousedown="handleZoom(evt,'out')"/>
  <use id="reset" xlink:href="#resetDef" x="30" y="36" onmousedown="handleReset()"/>
   <use id="arrowup" xlink:href="#arrowUp" x="0" y="0" onmousedown="handlePan(0,-1)"/>
  <use id="arrowright" xlink:href="#arrowRight" x="0" y="0" onmousedown="handlePan(1,0)"/>
  <use id="arrowdown" xlink:href="#arrowDown" x="0" y="0" onmousedown="handlePan(0,1)"/>
  <use id="arrowleft" xlink:href="#arrowLeft" x="0" y="0" onmousedown="handlePan(-1,0)"/>
</g>
<svg viewBox="0 0 15 15" width="100%" height="30px" preserveAspectRatio="xMaxYMin meet">
 <g id="arrow_out" transform="scale(0.3 0.3)">
  <a xlink:href="smart__maintenance__suite__app_8cpp__incl_org.svg" target="_base">
   <rect id="button" ry="5" rx="5" y="6" x="6" height="38" width="38"
        fill="#f2f5e9" fill-opacity="0.5" stroke="#606060" stroke-width="1.0"/>
   <path id="arrow"
     d="M 11.500037,31.436501 C 11.940474,20.09759 22.043105,11.32322 32.158766,21.979434 L 37.068811,17.246167 C 37.068811,17.246167 37.088388,32 37.088388,32 L 22.160133,31.978069 C 22.160133,31.978069 26.997745,27.140456 26.997745,27.140456 C 18.528582,18.264221 13.291696,25.230495 11.500037,31.436501 z"
     style="fill:#404040;"/>
  </a>
 </g>
</svg>

<style type='text/css'>
<![CDATA[
[data-mouse-over-selected='false'] { opacity: 0.7; }
[data-mouse-over-selected='true']  { opacity: 1.0; }
]]>
</style>
<script type="application/ecmascript"><![CDATA[
document.addEventListener('DOMContentLoaded', (event) => {
  highlightEdges();
  highlightAdjacentNodes();
});
]]></script>
</svg>
