<?xml version="1.0" encoding="UTF-8" standalone="no"?>
<!DOCTYPE svg PUBLIC "-//W3C//DTD SVG 1.1//EN"
 "http://www.w3.org/Graphics/SVG/1.1/DTD/svg11.dtd">
<!-- Generated by graphviz version 12.0.0 (20240704.0754)
 -->
<!-- Title: src/smart_maintenance_suite/header/smart_maintenance_suite.h Pages: 1 -->
<svg width="316pt" height="132pt"
 viewBox="0.00 0.00 316.00 132.00" xmlns="http://www.w3.org/2000/svg" xmlns:xlink="http://www.w3.org/1999/xlink">
<g id="graph0" class="graph" transform="scale(1 1) rotate(0) translate(4 128)">
<title>src/smart_maintenance_suite/header/smart_maintenance_suite.h</title>
<!-- Node1 -->
<g id="Node000001" class="node">
<title>Node1</title>
<g id="a_Node000001"><a xlink:title="Provides functions for math. utilities.">
<polygon fill="#999999" stroke="#666666" points="236.12,-124 73.12,-124 73.12,-80 236.12,-80 236.12,-124"/>
<text text-anchor="start" x="81.12" y="-110.5" font-family="Helvetica,sans-Serif" font-size="10.00">src/smart_maintenance</text>
<text text-anchor="start" x="81.12" y="-98.5" font-family="Helvetica,sans-Serif" font-size="10.00">_suite/header/smart_maintenance</text>
<text text-anchor="middle" x="154.62" y="-86.5" font-family="Helvetica,sans-Serif" font-size="10.00">_suite.h</text>
</a>
</g>
</g>
<!-- Node2 -->
<g id="Node000002" class="node">
<title>Node2</title>
<g id="a_Node000002"><a xlink:href="smart__maintenance__suite_8cpp.html" target="_top" xlink:title=" ">
<polygon fill="white" stroke="#666666" points="147.25,-44 0,-44 0,0 147.25,0 147.25,-44"/>
<text text-anchor="start" x="8" y="-30.5" font-family="Helvetica,sans-Serif" font-size="10.00">src/smart_maintenance</text>
<text text-anchor="start" x="8" y="-18.5" font-family="Helvetica,sans-Serif" font-size="10.00">_suite/src/smart_maintenance</text>
<text text-anchor="middle" x="73.62" y="-6.5" font-family="Helvetica,sans-Serif" font-size="10.00">_suite.cpp</text>
</a>
</g>
</g>
<!-- Node1&#45;&gt;Node2 -->
<g id="edge1_Node000001_Node000002" class="edge">
<title>Node1&#45;&gt;Node2</title>
<g id="a_edge1_Node000001_Node000002"><a xlink:title=" ">
<path fill="none" stroke="#63b8ff" d="M124.4,-71.89C114.89,-62.74 104.57,-52.8 95.73,-44.29"/>
<polygon fill="#63b8ff" stroke="#63b8ff" points="121.77,-74.22 131.4,-78.64 126.63,-69.18 121.77,-74.22"/>
</a>
</g>
</g>
<!-- Node3 -->
<g id="Node000003" class="node">
<title>Node3</title>
<g id="a_Node000003"><a xlink:href="smart__maintenance__suite__app_8cpp.html" target="_top" xlink:title="A simple program to demonstrate the usage of the smart maintenance suite model class.">
<polygon fill="white" stroke="#666666" points="308,-44 165.25,-44 165.25,0 308,0 308,-44"/>
<text text-anchor="start" x="173.25" y="-30.5" font-family="Helvetica,sans-Serif" font-size="10.00">src/smart_maintenance</text>
<text text-anchor="start" x="173.25" y="-18.5" font-family="Helvetica,sans-Serif" font-size="10.00">_suite_app/src/smart</text>
<text text-anchor="middle" x="236.62" y="-6.5" font-family="Helvetica,sans-Serif" font-size="10.00">_maintenance_suite_app.cpp</text>
</a>
</g>
</g>
<!-- Node1&#45;&gt;Node3 -->
<g id="edge2_Node000001_Node000003" class="edge">
<title>Node1&#45;&gt;Node3</title>
<g id="a_edge2_Node000001_Node000003"><a xlink:title=" ">
<path fill="none" stroke="#63b8ff" d="M185.22,-71.89C194.85,-62.74 205.3,-52.8 214.25,-44.29"/>
<polygon fill="#63b8ff" stroke="#63b8ff" points="182.96,-69.21 178.13,-78.64 187.79,-74.29 182.96,-69.21"/>
</a>
</g>
</g>
</g>
</svg>
