<?xml version="1.0" encoding="UTF-8" standalone="no"?>
<!DOCTYPE svg PUBLIC "-//W3C//DTD SVG 1.1//EN"
 "http://www.w3.org/Graphics/SVG/1.1/DTD/svg11.dtd">
<!-- Generated by graphviz version 12.0.0 (20240704.0754)
 -->
<!-- Title: src/smart_maintenance_suite_app/src/smart_maintenance_suite_app.cpp Pages: 1 -->
<svg width="505pt" height="200pt"
 viewBox="0.00 0.00 505.25 200.00" xmlns="http://www.w3.org/2000/svg" xmlns:xlink="http://www.w3.org/1999/xlink">
<g id="graph0" class="graph" transform="scale(1 1) rotate(0) translate(4 196)">
<title>src/smart_maintenance_suite_app/src/smart_maintenance_suite_app.cpp</title>
<!-- Node1 -->
<g id="Node000001" class="node">
<title>Node1</title>
<g id="a_Node000001"><a xlink:title="A simple program to demonstrate the usage of the smart maintenance suite model class.">
<polygon fill="#999999" stroke="#666666" points="253.12,-192 110.38,-192 110.38,-148 253.12,-148 253.12,-192"/>
<text text-anchor="start" x="118.38" y="-178.5" font-family="Helvetica,sans-Serif" font-size="10.00">src/smart_maintenance</text>
<text text-anchor="start" x="118.38" y="-166.5" font-family="Helvetica,sans-Serif" font-size="10.00">_suite_app/src/smart</text>
<text text-anchor="middle" x="181.75" y="-154.5" font-family="Helvetica,sans-Serif" font-size="10.00">_maintenance_suite_app.cpp</text>
</a>
</g>
</g>
<!-- Node2 -->
<g id="Node000002" class="node">
<title>Node2</title>
<g id="a_Node000002"><a xlink:title=" ">
<polygon fill="#e0e0e0" stroke="#999999" points="53.5,-100 0,-100 0,-80 53.5,-80 53.5,-100"/>
<text text-anchor="middle" x="26.75" y="-86.5" font-family="Helvetica,sans-Serif" font-size="10.00">iostream</text>
</a>
</g>
</g>
<!-- Node1&#45;&gt;Node2 -->
<g id="edge1_Node000001_Node000002" class="edge">
<title>Node1&#45;&gt;Node2</title>
<g id="a_edge1_Node000001_Node000002"><a xlink:title=" ">
<path fill="none" stroke="#63b8ff" d="M134.69,-147.54C112.63,-137.2 86.13,-124.39 62.75,-112 59.26,-110.15 55.61,-108.13 52.04,-106.1"/>
<polygon fill="#63b8ff" stroke="#63b8ff" points="54.08,-103.24 43.67,-101.24 50.56,-109.29 54.08,-103.24"/>
</a>
</g>
</g>
<!-- Node3 -->
<g id="Node000003" class="node">
<title>Node3</title>
<g id="a_Node000003"><a xlink:title=" ">
<polygon fill="#e0e0e0" stroke="#999999" points="111.75,-100 71.75,-100 71.75,-80 111.75,-80 111.75,-100"/>
<text text-anchor="middle" x="91.75" y="-86.5" font-family="Helvetica,sans-Serif" font-size="10.00">stack</text>
</a>
</g>
</g>
<!-- Node1&#45;&gt;Node3 -->
<g id="edge2_Node000001_Node000003" class="edge">
<title>Node1&#45;&gt;Node3</title>
<g id="a_edge2_Node000001_Node000003"><a xlink:title=" ">
<path fill="none" stroke="#63b8ff" d="M157.16,-147.69C142.61,-135.08 124.45,-119.34 110.96,-107.65"/>
<polygon fill="#63b8ff" stroke="#63b8ff" points="113.47,-105.19 103.62,-101.28 108.88,-110.48 113.47,-105.19"/>
</a>
</g>
</g>
<!-- Node4 -->
<g id="Node000004" class="node">
<title>Node4</title>
<g id="a_Node000004"><a xlink:title=" ">
<polygon fill="#e0e0e0" stroke="#999999" points="169.75,-100 129.75,-100 129.75,-80 169.75,-80 169.75,-100"/>
<text text-anchor="middle" x="149.75" y="-86.5" font-family="Helvetica,sans-Serif" font-size="10.00">string</text>
</a>
</g>
</g>
<!-- Node1&#45;&gt;Node4 -->
<g id="edge3_Node000001_Node000004" class="edge">
<title>Node1&#45;&gt;Node4</title>
<g id="a_edge3_Node000001_Node000004"><a xlink:title=" ">
<path fill="none" stroke="#63b8ff" d="M173.01,-147.69C168.28,-136.17 162.49,-122.04 157.86,-110.77"/>
<polygon fill="#63b8ff" stroke="#63b8ff" points="161.17,-109.62 154.14,-101.69 154.69,-112.27 161.17,-109.62"/>
</a>
</g>
</g>
<!-- Node5 -->
<g id="Node000005" class="node">
<title>Node5</title>
<g id="a_Node000005"><a xlink:title=" ">
<polygon fill="#e0e0e0" stroke="#999999" points="239.38,-100 188.12,-100 188.12,-80 239.38,-80 239.38,-100"/>
<text text-anchor="middle" x="213.75" y="-86.5" font-family="Helvetica,sans-Serif" font-size="10.00">sstream</text>
</a>
</g>
</g>
<!-- Node1&#45;&gt;Node5 -->
<g id="edge4_Node000001_Node000005" class="edge">
<title>Node1&#45;&gt;Node5</title>
<g id="a_edge4_Node000001_Node000005"><a xlink:title=" ">
<path fill="none" stroke="#63b8ff" d="M190.49,-147.69C195.22,-136.17 201.01,-122.04 205.64,-110.77"/>
<polygon fill="#63b8ff" stroke="#63b8ff" points="208.81,-112.27 209.36,-101.69 202.33,-109.62 208.81,-112.27"/>
</a>
</g>
</g>
<!-- Node6 -->
<g id="Node000006" class="node">
<title>Node6</title>
<g id="a_Node000006"><a xlink:title=" ">
<polygon fill="#e0e0e0" stroke="#999999" points="316.12,-100 257.38,-100 257.38,-80 316.12,-80 316.12,-100"/>
<text text-anchor="middle" x="286.75" y="-86.5" font-family="Helvetica,sans-Serif" font-size="10.00">stdexcept</text>
</a>
</g>
</g>
<!-- Node1&#45;&gt;Node6 -->
<g id="edge5_Node000001_Node000006" class="edge">
<title>Node1&#45;&gt;Node6</title>
<g id="a_edge5_Node000001_Node000006"><a xlink:title=" ">
<path fill="none" stroke="#63b8ff" d="M210.44,-147.69C227.64,-134.91 249.16,-118.92 264.96,-107.19"/>
<polygon fill="#63b8ff" stroke="#63b8ff" points="266.81,-110.17 272.75,-101.4 262.64,-104.55 266.81,-110.17"/>
</a>
</g>
</g>
<!-- Node7 -->
<g id="Node000007" class="node">
<title>Node7</title>
<g id="a_Node000007"><a xlink:href="smart__maintenance__suite_8h.html" target="_top" xlink:title="Provides functions for math. utilities.">
<polygon fill="white" stroke="#666666" points="497.25,-112 334.25,-112 334.25,-68 497.25,-68 497.25,-112"/>
<text text-anchor="start" x="342.25" y="-98.5" font-family="Helvetica,sans-Serif" font-size="10.00">../../smart_maintenance</text>
<text text-anchor="start" x="342.25" y="-86.5" font-family="Helvetica,sans-Serif" font-size="10.00">_suite/header/smart_maintenance</text>
<text text-anchor="middle" x="415.75" y="-74.5" font-family="Helvetica,sans-Serif" font-size="10.00">_suite.h</text>
</a>
</g>
</g>
<!-- Node1&#45;&gt;Node7 -->
<g id="edge6_Node000001_Node000007" class="edge">
<title>Node1&#45;&gt;Node7</title>
<g id="a_edge6_Node000001_Node000007"><a xlink:title=" ">
<path fill="none" stroke="#63b8ff" d="M246,-147.58C275.41,-137.78 310.45,-126.1 341.03,-115.91"/>
<polygon fill="#63b8ff" stroke="#63b8ff" points="341.83,-119.33 350.21,-112.85 339.61,-112.69 341.83,-119.33"/>
</a>
</g>
</g>
<!-- Node8 -->
<g id="Node000008" class="node">
<title>Node8</title>
<g id="a_Node000008"><a xlink:title=" ">
<polygon fill="#e0e0e0" stroke="#999999" points="461.25,-32 370.25,-32 370.25,0 461.25,0 461.25,-32"/>
<text text-anchor="start" x="378.25" y="-18.5" font-family="Helvetica,sans-Serif" font-size="10.00">../../utility/header</text>
<text text-anchor="middle" x="415.75" y="-6.5" font-family="Helvetica,sans-Serif" font-size="10.00">/commonTypes.h</text>
</a>
</g>
</g>
<!-- Node7&#45;&gt;Node8 -->
<g id="edge7_Node000007_Node000008" class="edge">
<title>Node7&#45;&gt;Node8</title>
<g id="a_edge7_Node000007_Node000008"><a xlink:title=" ">
<path fill="none" stroke="#63b8ff" d="M415.75,-67.79C415.75,-60.18 415.75,-51.52 415.75,-43.52"/>
<polygon fill="#63b8ff" stroke="#63b8ff" points="419.25,-43.64 415.75,-33.64 412.25,-43.64 419.25,-43.64"/>
</a>
</g>
</g>
</g>
</svg>
