<?xml version="1.0" encoding="UTF-8" standalone="no"?>
<!DOCTYPE svg PUBLIC "-//W3C//DTD SVG 1.1//EN"
 "http://www.w3.org/Graphics/SVG/1.1/DTD/svg11.dtd">
<!-- Generated by graphviz version 12.0.0 (20240704.0754)
 -->
<!-- Title: src/smart_maintenance_suite_app/src/smart_maintenance_suite_app.cpp Pages: 1 -->
<svg width="576pt" height="200pt"
 viewBox="0.00 0.00 575.50 200.00" xmlns="http://www.w3.org/2000/svg" xmlns:xlink="http://www.w3.org/1999/xlink">
<g id="graph0" class="graph" transform="scale(1 1) rotate(0) translate(4 196)">
<title>src/smart_maintenance_suite_app/src/smart_maintenance_suite_app.cpp</title>
<!-- Node1 -->
<g id="Node000001" class="node">
<title>Node1</title>
<g id="a_Node000001"><a xlink:title="Smart Maintenance Suite &#45; Demo Application Implementation.">
<polygon fill="#999999" stroke="#666666" points="404.5,-192 261.75,-192 261.75,-148 404.5,-148 404.5,-192"/>
<text text-anchor="start" x="269.75" y="-178.5" font-family="Helvetica,sans-Serif" font-size="10.00">src/smart_maintenance</text>
<text text-anchor="start" x="269.75" y="-166.5" font-family="Helvetica,sans-Serif" font-size="10.00">_suite_app/src/smart</text>
<text text-anchor="middle" x="333.12" y="-154.5" font-family="Helvetica,sans-Serif" font-size="10.00">_maintenance_suite_app.cpp</text>
</a>
</g>
</g>
<!-- Node2 -->
<g id="Node000002" class="node">
<title>Node2</title>
<g id="a_Node000002"><a xlink:href="smart__maintenance__suite__app_8h.html" target="_top" xlink:title="Header file for Smart Maintenance Suite Demo Application.">
<polygon fill="white" stroke="#666666" points="132.25,-112 0,-112 0,-68 132.25,-68 132.25,-112"/>
<text text-anchor="start" x="8" y="-98.5" font-family="Helvetica,sans-Serif" font-size="10.00">../../smart_maintenance</text>
<text text-anchor="start" x="8" y="-86.5" font-family="Helvetica,sans-Serif" font-size="10.00">_suite_app/header/smart</text>
<text text-anchor="middle" x="66.12" y="-74.5" font-family="Helvetica,sans-Serif" font-size="10.00">_maintenance_suite_app.h</text>
</a>
</g>
</g>
<!-- Node1&#45;&gt;Node2 -->
<g id="edge1_Node000001_Node000002" class="edge">
<title>Node1&#45;&gt;Node2</title>
<g id="a_edge1_Node000001_Node000002"><a xlink:title=" ">
<path fill="none" stroke="#63b8ff" d="M261.57,-148.1C225.02,-137.42 180.5,-124.41 143.19,-113.51"/>
<polygon fill="#63b8ff" stroke="#63b8ff" points="144.4,-110.22 133.82,-110.78 142.44,-116.94 144.4,-110.22"/>
</a>
</g>
</g>
<!-- Node3 -->
<g id="Node000003" class="node">
<title>Node3</title>
<g id="a_Node000003"><a xlink:title=" ">
<polygon fill="#e0e0e0" stroke="#999999" points="180.12,-26 140.12,-26 140.12,-6 180.12,-6 180.12,-26"/>
<text text-anchor="middle" x="160.12" y="-12.5" font-family="Helvetica,sans-Serif" font-size="10.00">string</text>
</a>
</g>
</g>
<!-- Node1&#45;&gt;Node3 -->
<g id="edge9_Node000001_Node000003" class="edge">
<title>Node1&#45;&gt;Node3</title>
<g id="a_edge9_Node000001_Node000003"><a xlink:title=" ">
<path fill="none" stroke="#63b8ff" d="M261.45,-158.23C231.93,-150.22 199.86,-136.28 179.12,-112 161.49,-91.35 158.54,-58.95 158.77,-37.84"/>
<polygon fill="#63b8ff" stroke="#63b8ff" points="162.27,-38 159.16,-27.88 155.27,-37.73 162.27,-38"/>
</a>
</g>
</g>
<!-- Node4 -->
<g id="Node000004" class="node">
<title>Node4</title>
<g id="a_Node000004"><a xlink:href="smart__maintenance__suite_8h.html" target="_top" xlink:title="Smart Maintenance Suite &#45; Core Utility Library.">
<polygon fill="white" stroke="#666666" points="351.62,-112 188.62,-112 188.62,-68 351.62,-68 351.62,-112"/>
<text text-anchor="start" x="196.62" y="-98.5" font-family="Helvetica,sans-Serif" font-size="10.00">../../smart_maintenance</text>
<text text-anchor="start" x="196.62" y="-86.5" font-family="Helvetica,sans-Serif" font-size="10.00">_suite/header/smart_maintenance</text>
<text text-anchor="middle" x="270.12" y="-74.5" font-family="Helvetica,sans-Serif" font-size="10.00">_suite.h</text>
</a>
</g>
</g>
<!-- Node1&#45;&gt;Node4 -->
<g id="edge3_Node000001_Node000004" class="edge">
<title>Node1&#45;&gt;Node4</title>
<g id="a_edge3_Node000001_Node000004"><a xlink:title=" ">
<path fill="none" stroke="#63b8ff" d="M315.91,-147.69C309.31,-139.52 301.65,-130.04 294.51,-121.19"/>
<polygon fill="#63b8ff" stroke="#63b8ff" points="297.28,-119.05 288.27,-113.47 291.83,-123.44 297.28,-119.05"/>
</a>
</g>
</g>
<!-- Node6 -->
<g id="Node000006" class="node">
<title>Node6</title>
<g id="a_Node000006"><a xlink:title=" ">
<polygon fill="#e0e0e0" stroke="#999999" points="422.88,-100 369.38,-100 369.38,-80 422.88,-80 422.88,-100"/>
<text text-anchor="middle" x="396.12" y="-86.5" font-family="Helvetica,sans-Serif" font-size="10.00">iostream</text>
</a>
</g>
</g>
<!-- Node1&#45;&gt;Node6 -->
<g id="edge6_Node000001_Node000006" class="edge">
<title>Node1&#45;&gt;Node6</title>
<g id="a_edge6_Node000001_Node000006"><a xlink:title=" ">
<path fill="none" stroke="#63b8ff" d="M350.34,-147.69C360.13,-135.56 372.26,-120.55 381.57,-109.02"/>
<polygon fill="#63b8ff" stroke="#63b8ff" points="384.11,-111.45 387.67,-101.47 378.66,-107.05 384.11,-111.45"/>
</a>
</g>
</g>
<!-- Node7 -->
<g id="Node000007" class="node">
<title>Node7</title>
<g id="a_Node000007"><a xlink:title=" ">
<polygon fill="#e0e0e0" stroke="#999999" points="491,-100 441.25,-100 441.25,-80 491,-80 491,-100"/>
<text text-anchor="middle" x="466.12" y="-86.5" font-family="Helvetica,sans-Serif" font-size="10.00">iomanip</text>
</a>
</g>
</g>
<!-- Node1&#45;&gt;Node7 -->
<g id="edge7_Node000001_Node000007" class="edge">
<title>Node1&#45;&gt;Node7</title>
<g id="a_edge7_Node000001_Node000007"><a xlink:title=" ">
<path fill="none" stroke="#63b8ff" d="M370.89,-147.62C389.42,-137.04 412.03,-123.99 432.12,-112 435.18,-110.18 438.38,-108.24 441.54,-106.31"/>
<polygon fill="#63b8ff" stroke="#63b8ff" points="443.32,-109.32 450,-101.09 439.65,-103.36 443.32,-109.32"/>
</a>
</g>
</g>
<!-- Node8 -->
<g id="Node000008" class="node">
<title>Node8</title>
<g id="a_Node000008"><a xlink:title=" ">
<polygon fill="#e0e0e0" stroke="#999999" points="567.5,-100 508.75,-100 508.75,-80 567.5,-80 567.5,-100"/>
<text text-anchor="middle" x="538.12" y="-86.5" font-family="Helvetica,sans-Serif" font-size="10.00">stdexcept</text>
</a>
</g>
</g>
<!-- Node1&#45;&gt;Node8 -->
<g id="edge8_Node000001_Node000008" class="edge">
<title>Node1&#45;&gt;Node8</title>
<g id="a_edge8_Node000001_Node000008"><a xlink:title=" ">
<path fill="none" stroke="#63b8ff" d="M404.88,-147.58C434.78,-137.86 469.59,-125.52 500.12,-112 504.27,-110.16 508.57,-108.03 512.71,-105.84"/>
<polygon fill="#63b8ff" stroke="#63b8ff" points="514.15,-109.05 521.22,-101.16 510.77,-102.92 514.15,-109.05"/>
</a>
</g>
</g>
<!-- Node2&#45;&gt;Node3 -->
<g id="edge2_Node000002_Node000003" class="edge">
<title>Node2&#45;&gt;Node3</title>
<g id="a_edge2_Node000002_Node000003"><a xlink:title=" ">
<path fill="none" stroke="#63b8ff" d="M94.07,-67.59C108.53,-56.52 125.89,-43.23 139.18,-33.05"/>
<polygon fill="#63b8ff" stroke="#63b8ff" points="141.02,-36.04 146.83,-27.18 136.77,-30.48 141.02,-36.04"/>
</a>
</g>
</g>
<!-- Node4&#45;&gt;Node3 -->
<g id="edge5_Node000004_Node000003" class="edge">
<title>Node4&#45;&gt;Node3</title>
<g id="a_edge5_Node000004_Node000003"><a xlink:title=" ">
<path fill="none" stroke="#63b8ff" d="M237.42,-67.59C220.28,-56.37 199.65,-42.87 184.02,-32.64"/>
<polygon fill="#63b8ff" stroke="#63b8ff" points="186.11,-29.83 175.83,-27.28 182.28,-35.68 186.11,-29.83"/>
</a>
</g>
</g>
<!-- Node5 -->
<g id="Node000005" class="node">
<title>Node5</title>
<g id="a_Node000005"><a xlink:title=" ">
<polygon fill="#e0e0e0" stroke="#999999" points="315.62,-32 224.62,-32 224.62,0 315.62,0 315.62,-32"/>
<text text-anchor="start" x="232.62" y="-18.5" font-family="Helvetica,sans-Serif" font-size="10.00">../../utility/header</text>
<text text-anchor="middle" x="270.12" y="-6.5" font-family="Helvetica,sans-Serif" font-size="10.00">/commonTypes.h</text>
</a>
</g>
</g>
<!-- Node4&#45;&gt;Node5 -->
<g id="edge4_Node000004_Node000005" class="edge">
<title>Node4&#45;&gt;Node5</title>
<g id="a_edge4_Node000004_Node000005"><a xlink:title=" ">
<path fill="none" stroke="#63b8ff" d="M270.12,-67.79C270.12,-60.18 270.12,-51.52 270.12,-43.52"/>
<polygon fill="#63b8ff" stroke="#63b8ff" points="273.63,-43.64 270.13,-33.64 266.63,-43.64 273.63,-43.64"/>
</a>
</g>
</g>
</g>
</svg>
