<?xml version="1.0" encoding="UTF-8" standalone="no"?>
<!DOCTYPE svg PUBLIC "-//W3C//DTD SVG 1.1//EN"
 "http://www.w3.org/Graphics/SVG/1.1/DTD/svg11.dtd">
<!-- Generated by graphviz version 12.0.0 (20240704.0754)
 -->
<!-- Title: src/smart_maintenance_suite/src/smart_maintenance_suite.cpp Pages: 1 -->
<svg width="373pt" height="176pt"
 viewBox="0.00 0.00 373.25 176.00" xmlns="http://www.w3.org/2000/svg" xmlns:xlink="http://www.w3.org/1999/xlink">
<g id="graph0" class="graph" transform="scale(1 1) rotate(0) translate(4 172)">
<title>src/smart_maintenance_suite/src/smart_maintenance_suite.cpp</title>
<!-- Node1 -->
<g id="Node000001" class="node">
<title>Node1</title>
<g id="a_Node000001"><a xlink:title="Smart Maintenance Suite &#45; Demo Application Implementation.">
<polygon fill="#999999" stroke="#666666" points="303.12,-168 155.88,-168 155.88,-124 303.12,-124 303.12,-168"/>
<text text-anchor="start" x="163.88" y="-154.5" font-family="Helvetica,sans-Serif" font-size="10.00">src/smart_maintenance</text>
<text text-anchor="start" x="163.88" y="-142.5" font-family="Helvetica,sans-Serif" font-size="10.00">_suite/src/smart_maintenance</text>
<text text-anchor="middle" x="229.5" y="-130.5" font-family="Helvetica,sans-Serif" font-size="10.00">_suite.cpp</text>
</a>
</g>
</g>
<!-- Node2 -->
<g id="Node000002" class="node">
<title>Node2</title>
<g id="a_Node000002"><a xlink:href="smart__maintenance__suite_8h.html" target="_top" xlink:title="Smart Maintenance Suite &#45; Core Utility Library.">
<polygon fill="white" stroke="#666666" points="155.5,-88 19.5,-88 19.5,-68 155.5,-68 155.5,-88"/>
<text text-anchor="middle" x="87.5" y="-74.5" font-family="Helvetica,sans-Serif" font-size="10.00">smart_maintenance_suite.h</text>
</a>
</g>
</g>
<!-- Node1&#45;&gt;Node2 -->
<g id="edge1_Node000001_Node000002" class="edge">
<title>Node1&#45;&gt;Node2</title>
<g id="a_edge1_Node000001_Node000002"><a xlink:title=" ">
<path fill="none" stroke="#63b8ff" d="M183.4,-123.57C161.9,-113.58 136.93,-101.97 117.85,-93.11"/>
<polygon fill="#63b8ff" stroke="#63b8ff" points="119.57,-90.04 109.02,-89 116.62,-96.39 119.57,-90.04"/>
</a>
</g>
</g>
<!-- Node5 -->
<g id="Node000005" class="node">
<title>Node5</title>
<g id="a_Node000005"><a xlink:title=" ">
<polygon fill="#e0e0e0" stroke="#999999" points="217,-88 174,-88 174,-68 217,-68 217,-88"/>
<text text-anchor="middle" x="195.5" y="-74.5" font-family="Helvetica,sans-Serif" font-size="10.00">cmath</text>
</a>
</g>
</g>
<!-- Node1&#45;&gt;Node5 -->
<g id="edge4_Node000001_Node000005" class="edge">
<title>Node1&#45;&gt;Node5</title>
<g id="a_edge4_Node000001_Node000005"><a xlink:title=" ">
<path fill="none" stroke="#63b8ff" d="M218.56,-123.75C214.39,-115.66 209.66,-106.48 205.57,-98.55"/>
<polygon fill="#63b8ff" stroke="#63b8ff" points="208.74,-97.05 201.05,-89.76 202.51,-100.26 208.74,-97.05"/>
</a>
</g>
</g>
<!-- Node6 -->
<g id="Node000006" class="node">
<title>Node6</title>
<g id="a_Node000006"><a xlink:title=" ">
<polygon fill="#e0e0e0" stroke="#999999" points="293.88,-88 235.12,-88 235.12,-68 293.88,-68 293.88,-88"/>
<text text-anchor="middle" x="264.5" y="-74.5" font-family="Helvetica,sans-Serif" font-size="10.00">stdexcept</text>
</a>
</g>
</g>
<!-- Node1&#45;&gt;Node6 -->
<g id="edge5_Node000001_Node000006" class="edge">
<title>Node1&#45;&gt;Node6</title>
<g id="a_edge5_Node000001_Node000006"><a xlink:title=" ">
<path fill="none" stroke="#63b8ff" d="M240.77,-123.75C245.06,-115.66 249.93,-106.48 254.13,-98.55"/>
<polygon fill="#63b8ff" stroke="#63b8ff" points="257.2,-100.23 258.8,-89.76 251.02,-96.95 257.2,-100.23"/>
</a>
</g>
</g>
<!-- Node7 -->
<g id="Node000007" class="node">
<title>Node7</title>
<g id="a_Node000007"><a xlink:title=" ">
<polygon fill="#e0e0e0" stroke="#999999" points="365.25,-88 311.75,-88 311.75,-68 365.25,-68 365.25,-88"/>
<text text-anchor="middle" x="338.5" y="-74.5" font-family="Helvetica,sans-Serif" font-size="10.00">iostream</text>
</a>
</g>
</g>
<!-- Node1&#45;&gt;Node7 -->
<g id="edge6_Node000001_Node000007" class="edge">
<title>Node1&#45;&gt;Node7</title>
<g id="a_edge6_Node000001_Node000007"><a xlink:title=" ">
<path fill="none" stroke="#63b8ff" d="M264.89,-123.57C280.7,-114 298.96,-102.94 313.34,-94.24"/>
<polygon fill="#63b8ff" stroke="#63b8ff" points="315,-97.32 321.74,-89.15 311.37,-91.33 315,-97.32"/>
</a>
</g>
</g>
<!-- Node3 -->
<g id="Node000003" class="node">
<title>Node3</title>
<g id="a_Node000003"><a xlink:title=" ">
<polygon fill="#e0e0e0" stroke="#999999" points="91,-32 0,-32 0,0 91,0 91,-32"/>
<text text-anchor="start" x="8" y="-18.5" font-family="Helvetica,sans-Serif" font-size="10.00">../../utility/header</text>
<text text-anchor="middle" x="45.5" y="-6.5" font-family="Helvetica,sans-Serif" font-size="10.00">/commonTypes.h</text>
</a>
</g>
</g>
<!-- Node2&#45;&gt;Node3 -->
<g id="edge2_Node000002_Node000003" class="edge">
<title>Node2&#45;&gt;Node3</title>
<g id="a_edge2_Node000002_Node000003"><a xlink:title=" ">
<path fill="none" stroke="#63b8ff" d="M80.94,-67.62C76.01,-60.58 69.02,-50.59 62.55,-41.35"/>
<polygon fill="#63b8ff" stroke="#63b8ff" points="65.57,-39.57 56.97,-33.38 59.83,-43.58 65.57,-39.57"/>
</a>
</g>
</g>
<!-- Node4 -->
<g id="Node000004" class="node">
<title>Node4</title>
<g id="a_Node000004"><a xlink:title=" ">
<polygon fill="#e0e0e0" stroke="#999999" points="149.5,-26 109.5,-26 109.5,-6 149.5,-6 149.5,-26"/>
<text text-anchor="middle" x="129.5" y="-12.5" font-family="Helvetica,sans-Serif" font-size="10.00">string</text>
</a>
</g>
</g>
<!-- Node2&#45;&gt;Node4 -->
<g id="edge3_Node000002_Node000004" class="edge">
<title>Node2&#45;&gt;Node4</title>
<g id="a_edge3_Node000002_Node000004"><a xlink:title=" ">
<path fill="none" stroke="#63b8ff" d="M94.06,-67.62C100.08,-59.03 109.15,-46.07 116.61,-35.41"/>
<polygon fill="#63b8ff" stroke="#63b8ff" points="119.39,-37.55 122.25,-27.35 113.65,-33.54 119.39,-37.55"/>
</a>
</g>
</g>
</g>
</svg>
