<?xml version="1.0" encoding="UTF-8" standalone="no"?>
<!DOCTYPE svg PUBLIC "-//W3C//DTD SVG 1.1//EN"
 "http://www.w3.org/Graphics/SVG/1.1/DTD/svg11.dtd">
<!-- Generated by graphviz version 12.0.0 (20240704.0754)
 -->
<!-- Title: src/smart_maintenance_suite_app/src/smart_maintenance_suite_app.cpp Pages: 1 -->
<svg width="451pt" height="120pt"
 viewBox="0.00 0.00 450.88 120.00" xmlns="http://www.w3.org/2000/svg" xmlns:xlink="http://www.w3.org/1999/xlink">
<g id="graph0" class="graph" transform="scale(1 1) rotate(0) translate(4 116)">
<title>src/smart_maintenance_suite_app/src/smart_maintenance_suite_app.cpp</title>
<!-- Node1 -->
<g id="Node000001" class="node">
<title>Node1</title>
<g id="a_Node000001"><a xlink:title=" ">
<polygon fill="#999999" stroke="#666666" points="253.12,-112 110.38,-112 110.38,-68 253.12,-68 253.12,-112"/>
<text text-anchor="start" x="118.38" y="-98.5" font-family="Helvetica,sans-Serif" font-size="10.00">src/smart_maintenance</text>
<text text-anchor="start" x="118.38" y="-86.5" font-family="Helvetica,sans-Serif" font-size="10.00">_suite_app/src/smart</text>
<text text-anchor="middle" x="181.75" y="-74.5" font-family="Helvetica,sans-Serif" font-size="10.00">_maintenance_suite_app.cpp</text>
</a>
</g>
</g>
<!-- Node2 -->
<g id="Node000002" class="node">
<title>Node2</title>
<g id="a_Node000002"><a xlink:title=" ">
<polygon fill="#e0e0e0" stroke="#999999" points="53.5,-26 0,-26 0,-6 53.5,-6 53.5,-26"/>
<text text-anchor="middle" x="26.75" y="-12.5" font-family="Helvetica,sans-Serif" font-size="10.00">iostream</text>
</a>
</g>
</g>
<!-- Node1&#45;&gt;Node2 -->
<g id="edge1_Node000001_Node000002" class="edge">
<title>Node1&#45;&gt;Node2</title>
<g id="a_edge1_Node000001_Node000002"><a xlink:title=" ">
<path fill="none" stroke="#63b8ff" d="M135.66,-67.59C110.36,-55.84 79.67,-41.58 57.33,-31.2"/>
<polygon fill="#63b8ff" stroke="#63b8ff" points="59.01,-28.12 48.46,-27.09 56.06,-34.47 59.01,-28.12"/>
</a>
</g>
</g>
<!-- Node3 -->
<g id="Node000003" class="node">
<title>Node3</title>
<g id="a_Node000003"><a xlink:title=" ">
<polygon fill="#e0e0e0" stroke="#999999" points="111.75,-26 71.75,-26 71.75,-6 111.75,-6 111.75,-26"/>
<text text-anchor="middle" x="91.75" y="-12.5" font-family="Helvetica,sans-Serif" font-size="10.00">stack</text>
</a>
</g>
</g>
<!-- Node1&#45;&gt;Node3 -->
<g id="edge2_Node000001_Node000003" class="edge">
<title>Node1&#45;&gt;Node3</title>
<g id="a_edge2_Node000001_Node000003"><a xlink:title=" ">
<path fill="none" stroke="#63b8ff" d="M155.23,-67.79C141.52,-56.81 125.02,-43.62 112.29,-33.43"/>
<polygon fill="#63b8ff" stroke="#63b8ff" points="114.57,-30.77 104.57,-27.26 110.19,-36.24 114.57,-30.77"/>
</a>
</g>
</g>
<!-- Node4 -->
<g id="Node000004" class="node">
<title>Node4</title>
<g id="a_Node000004"><a xlink:title=" ">
<polygon fill="#e0e0e0" stroke="#999999" points="169.75,-26 129.75,-26 129.75,-6 169.75,-6 169.75,-26"/>
<text text-anchor="middle" x="149.75" y="-12.5" font-family="Helvetica,sans-Serif" font-size="10.00">string</text>
</a>
</g>
</g>
<!-- Node1&#45;&gt;Node4 -->
<g id="edge3_Node000001_Node000004" class="edge">
<title>Node1&#45;&gt;Node4</title>
<g id="a_edge3_Node000001_Node000004"><a xlink:title=" ">
<path fill="none" stroke="#63b8ff" d="M172.32,-67.79C167.97,-58 162.83,-46.44 158.56,-36.83"/>
<polygon fill="#63b8ff" stroke="#63b8ff" points="161.76,-35.41 154.5,-27.69 155.37,-38.25 161.76,-35.41"/>
</a>
</g>
</g>
<!-- Node5 -->
<g id="Node000005" class="node">
<title>Node5</title>
<g id="a_Node000005"><a xlink:title=" ">
<polygon fill="#e0e0e0" stroke="#999999" points="239.38,-26 188.12,-26 188.12,-6 239.38,-6 239.38,-26"/>
<text text-anchor="middle" x="213.75" y="-12.5" font-family="Helvetica,sans-Serif" font-size="10.00">sstream</text>
</a>
</g>
</g>
<!-- Node1&#45;&gt;Node5 -->
<g id="edge4_Node000001_Node000005" class="edge">
<title>Node1&#45;&gt;Node5</title>
<g id="a_edge4_Node000001_Node000005"><a xlink:title=" ">
<path fill="none" stroke="#63b8ff" d="M191.18,-67.79C195.53,-58 200.67,-46.44 204.94,-36.83"/>
<polygon fill="#63b8ff" stroke="#63b8ff" points="208.13,-38.25 209,-27.69 201.74,-35.41 208.13,-38.25"/>
</a>
</g>
</g>
<!-- Node6 -->
<g id="Node000006" class="node">
<title>Node6</title>
<g id="a_Node000006"><a xlink:title=" ">
<polygon fill="#e0e0e0" stroke="#999999" points="316.12,-26 257.38,-26 257.38,-6 316.12,-6 316.12,-26"/>
<text text-anchor="middle" x="286.75" y="-12.5" font-family="Helvetica,sans-Serif" font-size="10.00">stdexcept</text>
</a>
</g>
</g>
<!-- Node1&#45;&gt;Node6 -->
<g id="edge5_Node000001_Node000006" class="edge">
<title>Node1&#45;&gt;Node6</title>
<g id="a_edge5_Node000001_Node000006"><a xlink:title=" ">
<path fill="none" stroke="#63b8ff" d="M212.97,-67.59C229.18,-56.48 248.64,-43.13 263.51,-32.94"/>
<polygon fill="#63b8ff" stroke="#63b8ff" points="265.46,-35.85 271.72,-27.3 261.5,-30.07 265.46,-35.85"/>
</a>
</g>
</g>
<!-- Node7 -->
<g id="Node000007" class="node">
<title>Node7</title>
<g id="a_Node000007"><a xlink:title=" ">
<polygon fill="#e0e0e0" stroke="#999999" points="442.88,-32 334.62,-32 334.62,0 442.88,0 442.88,-32"/>
<text text-anchor="start" x="342.62" y="-18.5" font-family="Helvetica,sans-Serif" font-size="10.00">../../calculator/header</text>
<text text-anchor="middle" x="388.75" y="-6.5" font-family="Helvetica,sans-Serif" font-size="10.00">/calculator.h</text>
</a>
</g>
</g>
<!-- Node1&#45;&gt;Node7 -->
<g id="edge6_Node000001_Node000007" class="edge">
<title>Node1&#45;&gt;Node7</title>
<g id="a_edge6_Node000001_Node000007"><a xlink:title=" ">
<path fill="none" stroke="#63b8ff" d="M243.3,-67.59C271.91,-57.64 305.68,-45.89 333.47,-36.23"/>
<polygon fill="#63b8ff" stroke="#63b8ff" points="334.48,-39.58 342.77,-32.99 332.18,-32.97 334.48,-39.58"/>
</a>
</g>
</g>
</g>
</svg>
