<?xml version="1.0" encoding="UTF-8" standalone="no"?>
<!DOCTYPE svg PUBLIC "-//W3C//DTD SVG 1.1//EN"
 "http://www.w3.org/Graphics/SVG/1.1/DTD/svg11.dtd">
<!-- Generated by graphviz version 2.43.0 (0)
 -->
<!-- Title: src/smart_maintenance_suite/src Pages: 1 -->
<svg width="152pt" height="151pt"
 viewBox="0.00 0.00 152.00 151.00" xmlns="http://www.w3.org/2000/svg" xmlns:xlink="http://www.w3.org/1999/xlink">
<g id="graph0" class="graph" transform="scale(1 1) rotate(0) translate(4 147)">
<title>src/smart_maintenance_suite/src</title>
<polygon fill="white" stroke="transparent" points="-4,4 -4,-147 148,-147 148,4 -4,4"/>
<g id="clust1" class="cluster">
<title>clusterdir_1cbee9d832be633a1be123ab168c5281</title>
<g id="a_clust1"><a xlink:href="dir_1cbee9d832be633a1be123ab168c5281.html" xlink:title="smart_maintenance_suite">
<polygon fill="#ddddee" stroke="black" points="8,-64 8,-135 136,-135 136,-64 8,-64"/>
<text text-anchor="middle" x="72" y="-123" font-family="Helvetica,sans-Serif" font-size="10.00">smart_maintenance_suite</text>
</a>
</g>
</g>
<!-- dir_0212a2ffa9dbd078a5a43ede45e54b02 -->
<g id="node1" class="node">
<title>dir_0212a2ffa9dbd078a5a43ede45e54b02</title>
<g id="a_node1"><a xlink:href="dir_0212a2ffa9dbd078a5a43ede45e54b02.html" xlink:title="src">
<polygon fill="#eeeeff" stroke="black" points="99,-108 45,-108 45,-72 99,-72 99,-108"/>
<text text-anchor="middle" x="72" y="-87.5" font-family="Helvetica,sans-Serif" font-size="10.00">src</text>
</a>
</g>
</g>
<!-- dir_900ce474183f1558f88cd51ef5f4efb7 -->
<g id="node2" class="node">
<title>dir_900ce474183f1558f88cd51ef5f4efb7</title>
<g id="a_node2"><a xlink:href="dir_900ce474183f1558f88cd51ef5f4efb7.html" xlink:title="header">
<polygon fill="none" stroke="black" points="99,-36 45,-36 45,0 99,0 99,-36"/>
<text text-anchor="middle" x="72" y="-15.5" font-family="Helvetica,sans-Serif" font-size="10.00">header</text>
</a>
</g>
</g>
<!-- dir_0212a2ffa9dbd078a5a43ede45e54b02&#45;&gt;dir_900ce474183f1558f88cd51ef5f4efb7 -->
<g id="edge1" class="edge">
<title>dir_0212a2ffa9dbd078a5a43ede45e54b02&#45;&gt;dir_900ce474183f1558f88cd51ef5f4efb7</title>
<path fill="none" stroke="black" d="M72,-71.7C72,-63.98 72,-54.71 72,-46.11"/>
<polygon fill="black" stroke="black" points="75.5,-46.1 72,-36.1 68.5,-46.1 75.5,-46.1"/>
<g id="a_edge1&#45;headlabel"><a xlink:href="dir_000003_000002.html" xlink:title="1">
<text text-anchor="middle" x="78.34" y="-47.2" font-family="Helvetica,sans-Serif" font-size="10.00">1</text>
</a>
</g>
</g>
</g>
</svg>
