<?xml version="1.0" encoding="UTF-8" standalone="no"?>
<!DOCTYPE svg PUBLIC "-//W3C//DTD SVG 1.1//EN"
 "http://www.w3.org/Graphics/SVG/1.1/DTD/svg11.dtd">
<!-- Generated by graphviz version 2.43.0 (0)
 -->
<!-- Title: src/smart_maintenance_suite_app Pages: 1 -->
<svg width="361pt" height="159pt"
 viewBox="0.00 0.00 361.00 159.00" xmlns="http://www.w3.org/2000/svg" xmlns:xlink="http://www.w3.org/1999/xlink">
<g id="graph0" class="graph" transform="scale(1 1) rotate(0) translate(4 155)">
<title>src/smart_maintenance_suite_app</title>
<polygon fill="white" stroke="transparent" points="-4,4 -4,-155 357,-155 357,4 -4,4"/>
<g id="clust1" class="cluster">
<title>clusterdir_68267d1309a1af8e8297ef4c3efbcdba</title>
<g id="a_clust1"><a xlink:href="dir_68267d1309a1af8e8297ef4c3efbcdba.html" xlink:title="src">
<polygon fill="#ddddee" stroke="black" points="21,-56 21,-143 345,-143 345,-56 21,-56"/>
<text text-anchor="middle" x="183" y="-131" font-family="Helvetica,sans-Serif" font-size="10.00">src</text>
</a>
</g>
</g>
<g id="clust2" class="cluster">
<title>clusterdir_3238ec1e7a4c1eeb6b28bbc4f4fab3ee</title>
<g id="a_clust2"><a xlink:href="dir_3238ec1e7a4c1eeb6b28bbc4f4fab3ee.html">
<polygon fill="#eeeeff" stroke="black" points="29,-64 29,-116 337,-116 337,-64 29,-64"/>
</a>
</g>
</g>
<!-- dir_3238ec1e7a4c1eeb6b28bbc4f4fab3ee -->
<g id="node1" class="node">
<title>dir_3238ec1e7a4c1eeb6b28bbc4f4fab3ee</title>
<text text-anchor="middle" x="255" y="-87.5" font-family="Helvetica,sans-Serif" font-size="10.00">smart_maintenance_suite_app</text>
</g>
<!-- dir_796e037d11f32067fb301ac79e730d0a -->
<g id="node2" class="node">
<title>dir_796e037d11f32067fb301ac79e730d0a</title>
<g id="a_node2"><a xlink:href="dir_796e037d11f32067fb301ac79e730d0a.html" xlink:title="header">
<polygon fill="white" stroke="black" points="163,-108 109,-108 109,-72 163,-72 163,-108"/>
<text text-anchor="middle" x="136" y="-87.5" font-family="Helvetica,sans-Serif" font-size="10.00">header</text>
</a>
</g>
</g>
<!-- dir_0fb7d451f69ed3b346e8c8624f47e6d6 -->
<g id="node3" class="node">
<title>dir_0fb7d451f69ed3b346e8c8624f47e6d6</title>
<g id="a_node3"><a xlink:href="dir_0fb7d451f69ed3b346e8c8624f47e6d6.html" xlink:title="src">
<polygon fill="white" stroke="black" points="91,-108 37,-108 37,-72 91,-72 91,-108"/>
<text text-anchor="middle" x="64" y="-87.5" font-family="Helvetica,sans-Serif" font-size="10.00">src</text>
</a>
</g>
</g>
<!-- dir_1cbee9d832be633a1be123ab168c5281 -->
<g id="node4" class="node">
<title>dir_1cbee9d832be633a1be123ab168c5281</title>
<g id="a_node4"><a xlink:href="dir_1cbee9d832be633a1be123ab168c5281.html" xlink:title="smart_maintenance_suite">
<polygon fill="white" stroke="red" points="128,-36 0,-36 0,0 128,0 128,-36"/>
<text text-anchor="middle" x="64" y="-15.5" font-family="Helvetica,sans-Serif" font-size="10.00">smart_maintenance_suite</text>
</a>
</g>
</g>
<!-- dir_0fb7d451f69ed3b346e8c8624f47e6d6&#45;&gt;dir_1cbee9d832be633a1be123ab168c5281 -->
<g id="edge1" class="edge">
<title>dir_0fb7d451f69ed3b346e8c8624f47e6d6&#45;&gt;dir_1cbee9d832be633a1be123ab168c5281</title>
<path fill="none" stroke="black" d="M64,-71.7C64,-63.98 64,-54.71 64,-46.11"/>
<polygon fill="black" stroke="black" points="67.5,-46.1 64,-36.1 60.5,-46.1 67.5,-46.1"/>
<g id="a_edge1&#45;headlabel"><a xlink:href="dir_000006_000001.html" xlink:title="1">
<text text-anchor="middle" x="70.34" y="-47.2" font-family="Helvetica,sans-Serif" font-size="10.00">1</text>
</a>
</g>
</g>
</g>
</svg>
