<?xml version="1.0" encoding="UTF-8" standalone="no"?>
<!DOCTYPE svg PUBLIC "-//W3C//DTD SVG 1.1//EN"
 "http://www.w3.org/Graphics/SVG/1.1/DTD/svg11.dtd">
<!-- Generated by graphviz version 2.43.0 (0)
 -->
<!-- Title: src Pages: 1 -->
<svg width="260pt" height="148pt"
 viewBox="0.00 0.00 260.00 148.00" xmlns="http://www.w3.org/2000/svg" xmlns:xlink="http://www.w3.org/1999/xlink">
<g id="graph0" class="graph" transform="scale(1 1) rotate(0) translate(4 144)">
<title>src</title>
<polygon fill="white" stroke="transparent" points="-4,4 -4,-144 256,-144 256,4 -4,4"/>
<g id="clust1" class="cluster">
<title>clusterdir_68267d1309a1af8e8297ef4c3efbcdba</title>
<g id="a_clust1"><a xlink:href="dir_68267d1309a1af8e8297ef4c3efbcdba.html">
<polygon fill="#eeeeff" stroke="black" points="8,-8 8,-132 244,-132 244,-8 8,-8"/>
</a>
</g>
</g>
<!-- dir_68267d1309a1af8e8297ef4c3efbcdba -->
<g id="node1" class="node">
<title>dir_68267d1309a1af8e8297ef4c3efbcdba</title>
<text text-anchor="middle" x="209" y="-103.5" font-family="Helvetica,sans-Serif" font-size="10.00">src</text>
</g>
<!-- dir_1cbee9d832be633a1be123ab168c5281 -->
<g id="node2" class="node">
<title>dir_1cbee9d832be633a1be123ab168c5281</title>
<g id="a_node2"><a xlink:href="dir_1cbee9d832be633a1be123ab168c5281.html" xlink:title="smart_maintenance_suite">
<polygon fill="white" stroke="red" points="154,-52 26,-52 26,-16 154,-16 154,-52"/>
<text text-anchor="middle" x="90" y="-31.5" font-family="Helvetica,sans-Serif" font-size="10.00">smart_maintenance_suite</text>
</a>
</g>
</g>
<!-- dir_3238ec1e7a4c1eeb6b28bbc4f4fab3ee -->
<g id="node3" class="node">
<title>dir_3238ec1e7a4c1eeb6b28bbc4f4fab3ee</title>
<g id="a_node3"><a xlink:href="dir_3238ec1e7a4c1eeb6b28bbc4f4fab3ee.html" xlink:title="smart_maintenance_suite_app">
<polygon fill="white" stroke="red" points="164.5,-124 15.5,-124 15.5,-88 164.5,-88 164.5,-124"/>
<text text-anchor="middle" x="90" y="-103.5" font-family="Helvetica,sans-Serif" font-size="10.00">smart_maintenance_suite_app</text>
</a>
</g>
</g>
<!-- dir_3238ec1e7a4c1eeb6b28bbc4f4fab3ee&#45;&gt;dir_1cbee9d832be633a1be123ab168c5281 -->
<g id="edge1" class="edge">
<title>dir_3238ec1e7a4c1eeb6b28bbc4f4fab3ee&#45;&gt;dir_1cbee9d832be633a1be123ab168c5281</title>
<path fill="none" stroke="black" d="M90,-87.7C90,-79.98 90,-70.71 90,-62.11"/>
<polygon fill="black" stroke="black" points="93.5,-62.1 90,-52.1 86.5,-62.1 93.5,-62.1"/>
<g id="a_edge1&#45;headlabel"><a xlink:href="dir_000004_000001.html" xlink:title="1">
<text text-anchor="middle" x="96.34" y="-63.2" font-family="Helvetica,sans-Serif" font-size="10.00">1</text>
</a>
</g>
</g>
</g>
</svg>
