<?xml version="1.0" encoding="UTF-8" standalone="no"?>
<!DOCTYPE svg PUBLIC "-//W3C//DTD SVG 1.1//EN"
 "http://www.w3.org/Graphics/SVG/1.1/DTD/svg11.dtd">
<!-- Generated by graphviz version 2.43.0 (0)
 -->
<!-- Title: src/smart_maintenance_suite_app/src/smart_maintenance_suite_app.cpp Pages: 1 -->
<svg width="471pt" height="195pt"
 viewBox="0.00 0.00 471.00 195.00" xmlns="http://www.w3.org/2000/svg" xmlns:xlink="http://www.w3.org/1999/xlink">
<g id="graph0" class="graph" transform="scale(1 1) rotate(0) translate(4 191)">
<title>src/smart_maintenance_suite_app/src/smart_maintenance_suite_app.cpp</title>
<polygon fill="white" stroke="transparent" points="-4,4 -4,-191 467,-191 467,4 -4,4"/>
<!-- Node1 -->
<g id="node1" class="node">
<title>Node1</title>
<g id="a_node1"><a xlink:title="A simple program to demonstrate the usage of the smart maintenance suite model class.">
<polygon fill="#bfbfbf" stroke="black" points="112.5,-145.5 112.5,-186.5 255.5,-186.5 255.5,-145.5 112.5,-145.5"/>
<text text-anchor="start" x="120.5" y="-174.5" font-family="Helvetica,sans-Serif" font-size="10.00">src/smart_maintenance</text>
<text text-anchor="start" x="120.5" y="-163.5" font-family="Helvetica,sans-Serif" font-size="10.00">_suite_app/src/smart</text>
<text text-anchor="middle" x="184" y="-152.5" font-family="Helvetica,sans-Serif" font-size="10.00">_maintenance_suite_app.cpp</text>
</a>
</g>
</g>
<!-- Node2 -->
<g id="node2" class="node">
<title>Node2</title>
<g id="a_node2"><a xlink:title=" ">
<polygon fill="white" stroke="#bfbfbf" points="0,-78.5 0,-97.5 54,-97.5 54,-78.5 0,-78.5"/>
<text text-anchor="middle" x="27" y="-85.5" font-family="Helvetica,sans-Serif" font-size="10.00">iostream</text>
</a>
</g>
</g>
<!-- Node1&#45;&gt;Node2 -->
<g id="edge1" class="edge">
<title>Node1&#45;&gt;Node2</title>
<path fill="none" stroke="midnightblue" d="M139.66,-145.42C116.6,-135.01 88.07,-121.74 63,-109 59.06,-107 54.92,-104.79 50.9,-102.6"/>
<polygon fill="midnightblue" stroke="midnightblue" points="52.37,-99.41 41.93,-97.62 48.97,-105.53 52.37,-99.41"/>
</g>
<!-- Node3 -->
<g id="node3" class="node">
<title>Node3</title>
<g id="a_node3"><a xlink:title=" ">
<polygon fill="white" stroke="#bfbfbf" points="72.5,-78.5 72.5,-97.5 113.5,-97.5 113.5,-78.5 72.5,-78.5"/>
<text text-anchor="middle" x="93" y="-85.5" font-family="Helvetica,sans-Serif" font-size="10.00">stack</text>
</a>
</g>
</g>
<!-- Node1&#45;&gt;Node3 -->
<g id="edge2" class="edge">
<title>Node1&#45;&gt;Node3</title>
<path fill="none" stroke="midnightblue" d="M160.57,-145.43C145.21,-132.61 125.44,-116.09 111.26,-104.25"/>
<polygon fill="midnightblue" stroke="midnightblue" points="113.16,-101.28 103.24,-97.55 108.67,-106.65 113.16,-101.28"/>
</g>
<!-- Node4 -->
<g id="node4" class="node">
<title>Node4</title>
<g id="a_node4"><a xlink:title=" ">
<polygon fill="white" stroke="#bfbfbf" points="131.5,-78.5 131.5,-97.5 172.5,-97.5 172.5,-78.5 131.5,-78.5"/>
<text text-anchor="middle" x="152" y="-85.5" font-family="Helvetica,sans-Serif" font-size="10.00">string</text>
</a>
</g>
</g>
<!-- Node1&#45;&gt;Node4 -->
<g id="edge3" class="edge">
<title>Node1&#45;&gt;Node4</title>
<path fill="none" stroke="midnightblue" d="M175.76,-145.43C170.77,-133.58 164.45,-118.57 159.58,-107.01"/>
<polygon fill="midnightblue" stroke="midnightblue" points="162.71,-105.41 155.6,-97.55 156.26,-108.13 162.71,-105.41"/>
</g>
<!-- Node5 -->
<g id="node5" class="node">
<title>Node5</title>
<g id="a_node5"><a xlink:title=" ">
<polygon fill="white" stroke="#bfbfbf" points="191,-78.5 191,-97.5 243,-97.5 243,-78.5 191,-78.5"/>
<text text-anchor="middle" x="217" y="-85.5" font-family="Helvetica,sans-Serif" font-size="10.00">sstream</text>
</a>
</g>
</g>
<!-- Node1&#45;&gt;Node5 -->
<g id="edge4" class="edge">
<title>Node1&#45;&gt;Node5</title>
<path fill="none" stroke="midnightblue" d="M192.5,-145.43C197.64,-133.58 204.16,-118.57 209.18,-107.01"/>
<polygon fill="midnightblue" stroke="midnightblue" points="212.51,-108.12 213.29,-97.55 206.09,-105.33 212.51,-108.12"/>
</g>
<!-- Node6 -->
<g id="node6" class="node">
<title>Node6</title>
<g id="a_node6"><a xlink:title=" ">
<polygon fill="white" stroke="#bfbfbf" points="249.5,-6 249.5,-25 308.5,-25 308.5,-6 249.5,-6"/>
<text text-anchor="middle" x="279" y="-13" font-family="Helvetica,sans-Serif" font-size="10.00">stdexcept</text>
</a>
</g>
</g>
<!-- Node1&#45;&gt;Node6 -->
<g id="edge5" class="edge">
<title>Node1&#45;&gt;Node6</title>
<path fill="none" stroke="midnightblue" d="M215.39,-145.35C228.38,-135.81 242.57,-123.3 252,-109 267.01,-86.23 273.85,-54.96 276.84,-35.24"/>
<polygon fill="midnightblue" stroke="midnightblue" points="280.34,-35.49 278.19,-25.11 273.4,-34.56 280.34,-35.49"/>
</g>
<!-- Node7 -->
<g id="node7" class="node">
<title>Node7</title>
<g id="a_node7"><a xlink:href="$smart__maintenance__suite_8h.html" xlink:title="Provides functions for math. utilities.">
<polygon fill="white" stroke="black" points="299,-67.5 299,-108.5 463,-108.5 463,-67.5 299,-67.5"/>
<text text-anchor="start" x="307" y="-96.5" font-family="Helvetica,sans-Serif" font-size="10.00">../../smart_maintenance</text>
<text text-anchor="start" x="307" y="-85.5" font-family="Helvetica,sans-Serif" font-size="10.00">_suite/header/smart_maintenance</text>
<text text-anchor="middle" x="381" y="-74.5" font-family="Helvetica,sans-Serif" font-size="10.00">_suite.h</text>
</a>
</g>
</g>
<!-- Node1&#45;&gt;Node7 -->
<g id="edge6" class="edge">
<title>Node1&#45;&gt;Node7</title>
<path fill="none" stroke="midnightblue" d="M234.73,-145.43C261.04,-135.28 293.35,-122.81 320.91,-112.18"/>
<polygon fill="midnightblue" stroke="midnightblue" points="322.37,-115.37 330.44,-108.51 319.85,-108.84 322.37,-115.37"/>
</g>
<!-- Node7&#45;&gt;Node6 -->
<g id="edge8" class="edge">
<title>Node7&#45;&gt;Node6</title>
<path fill="none" stroke="midnightblue" d="M352.59,-67.36C335.83,-55.78 315,-41.39 299.79,-30.87"/>
<polygon fill="midnightblue" stroke="midnightblue" points="301.77,-27.98 291.55,-25.17 297.78,-33.74 301.77,-27.98"/>
</g>
<!-- Node8 -->
<g id="node8" class="node">
<title>Node8</title>
<g id="a_node8"><a xlink:title=" ">
<polygon fill="white" stroke="#bfbfbf" points="335,-0.5 335,-30.5 427,-30.5 427,-0.5 335,-0.5"/>
<text text-anchor="start" x="343" y="-18.5" font-family="Helvetica,sans-Serif" font-size="10.00">../../utility/header</text>
<text text-anchor="middle" x="381" y="-7.5" font-family="Helvetica,sans-Serif" font-size="10.00">/commonTypes.h</text>
</a>
</g>
</g>
<!-- Node7&#45;&gt;Node8 -->
<g id="edge7" class="edge">
<title>Node7&#45;&gt;Node8</title>
<path fill="none" stroke="midnightblue" d="M381,-67.36C381,-59.23 381,-49.7 381,-41.11"/>
<polygon fill="midnightblue" stroke="midnightblue" points="384.5,-40.89 381,-30.89 377.5,-40.89 384.5,-40.89"/>
</g>
</g>
</svg>
