<?xml version="1.0" encoding="UTF-8" standalone="no"?>
<!DOCTYPE svg PUBLIC "-//W3C//DTD SVG 1.1//EN"
 "http://www.w3.org/Graphics/SVG/1.1/DTD/svg11.dtd">
<!-- Generated by graphviz version 2.43.0 (0)
 -->
<!-- Title: src/smart_maintenance_suite/header/smart_maintenance_suite.h Pages: 1 -->
<svg width="318pt" height="128pt"
 viewBox="0.00 0.00 317.50 128.00" xmlns="http://www.w3.org/2000/svg" xmlns:xlink="http://www.w3.org/1999/xlink">
<g id="graph0" class="graph" transform="scale(1 1) rotate(0) translate(4 124)">
<title>src/smart_maintenance_suite/header/smart_maintenance_suite.h</title>
<polygon fill="white" stroke="transparent" points="-4,4 -4,-124 313.5,-124 313.5,4 -4,4"/>
<!-- Node1 -->
<g id="node1" class="node">
<title>Node1</title>
<g id="a_node1"><a xlink:title="Provides functions for math. utilities.">
<polygon fill="#bfbfbf" stroke="black" points="74,-78.5 74,-119.5 238,-119.5 238,-78.5 74,-78.5"/>
<text text-anchor="start" x="82" y="-107.5" font-family="Helvetica,sans-Serif" font-size="10.00">src/smart_maintenance</text>
<text text-anchor="start" x="82" y="-96.5" font-family="Helvetica,sans-Serif" font-size="10.00">_suite/header/smart_maintenance</text>
<text text-anchor="middle" x="156" y="-85.5" font-family="Helvetica,sans-Serif" font-size="10.00">_suite.h</text>
</a>
</g>
</g>
<!-- Node2 -->
<g id="node2" class="node">
<title>Node2</title>
<g id="a_node2"><a xlink:href="$smart__maintenance__suite_8cpp.html" xlink:title=" ">
<polygon fill="white" stroke="black" points="0,-0.5 0,-41.5 148,-41.5 148,-0.5 0,-0.5"/>
<text text-anchor="start" x="8" y="-29.5" font-family="Helvetica,sans-Serif" font-size="10.00">src/smart_maintenance</text>
<text text-anchor="start" x="8" y="-18.5" font-family="Helvetica,sans-Serif" font-size="10.00">_suite/src/smart_maintenance</text>
<text text-anchor="middle" x="74" y="-7.5" font-family="Helvetica,sans-Serif" font-size="10.00">_suite.cpp</text>
</a>
</g>
</g>
<!-- Node1&#45;&gt;Node2 -->
<g id="edge1" class="edge">
<title>Node1&#45;&gt;Node2</title>
<path fill="none" stroke="midnightblue" d="M127.4,-71.49C116.76,-61.63 104.89,-50.63 95.05,-41.51"/>
<polygon fill="midnightblue" stroke="midnightblue" points="125.17,-74.2 134.88,-78.43 129.93,-69.06 125.17,-74.2"/>
</g>
<!-- Node3 -->
<g id="node3" class="node">
<title>Node3</title>
<g id="a_node3"><a xlink:href="$smart__maintenance__suite__app_8cpp.html" xlink:title="A simple program to demonstrate the usage of the smart maintenance suite model class.">
<polygon fill="white" stroke="black" points="166.5,-0.5 166.5,-41.5 309.5,-41.5 309.5,-0.5 166.5,-0.5"/>
<text text-anchor="start" x="174.5" y="-29.5" font-family="Helvetica,sans-Serif" font-size="10.00">src/smart_maintenance</text>
<text text-anchor="start" x="174.5" y="-18.5" font-family="Helvetica,sans-Serif" font-size="10.00">_suite_app/src/smart</text>
<text text-anchor="middle" x="238" y="-7.5" font-family="Helvetica,sans-Serif" font-size="10.00">_maintenance_suite_app.cpp</text>
</a>
</g>
</g>
<!-- Node1&#45;&gt;Node3 -->
<g id="edge2" class="edge">
<title>Node1&#45;&gt;Node3</title>
<path fill="none" stroke="midnightblue" d="M184.6,-71.49C195.24,-61.63 207.11,-50.63 216.95,-41.51"/>
<polygon fill="midnightblue" stroke="midnightblue" points="182.07,-69.06 177.12,-78.43 186.83,-74.2 182.07,-69.06"/>
</g>
</g>
</svg>
