<?xml version="1.0" encoding="UTF-8" standalone="no"?>
<!DOCTYPE svg PUBLIC "-//W3C//DTD SVG 1.1//EN"
 "http://www.w3.org/Graphics/SVG/1.1/DTD/svg11.dtd">
<!-- Generated by graphviz version 12.0.0 (20240704.0754)
 -->
<!-- Title: Coruh::Calculator::Calculator Pages: 1 -->
<svg width="99pt" height="120pt"
 viewBox="0.00 0.00 99.00 120.00" xmlns="http://www.w3.org/2000/svg" xmlns:xlink="http://www.w3.org/1999/xlink">
<g id="graph0" class="graph" transform="scale(1 1) rotate(0) translate(4 116)">
<title>Coruh::Calculator::Calculator</title>
<!-- Node1 -->
<g id="Node000001" class="node">
<title>Node1</title>
<g id="a_Node000001"><a xlink:title="Provides Basic functions for various operations.">
<polygon fill="#999999" stroke="none" points="91,-112 0,-112 0,0 91,0 91,-112"/>
<text text-anchor="start" x="5" y="-98.5" font-family="Helvetica,sans-Serif" font-size="10.00">Coruh::Calculator::</text>
<text text-anchor="start" x="23.75" y="-86.5" font-family="Helvetica,sans-Serif" font-size="10.00">Calculator</text>
<text text-anchor="start" x="44" y="-70.5" font-family="Helvetica,sans-Serif" font-size="10.00"> </text>
<text text-anchor="start" x="12" y="-54.5" font-family="Helvetica,sans-Serif" font-size="10.00">+</text>
<text text-anchor="start" x="30" y="-54.5" font-family="Helvetica,sans-Serif" font-size="10.00">add()</text>
<text text-anchor="start" x="12" y="-38.5" font-family="Helvetica,sans-Serif" font-size="10.00">+</text>
<text text-anchor="start" x="30" y="-38.5" font-family="Helvetica,sans-Serif" font-size="10.00">subtract()</text>
<text text-anchor="start" x="12" y="-22.5" font-family="Helvetica,sans-Serif" font-size="10.00">+</text>
<text text-anchor="start" x="30" y="-22.5" font-family="Helvetica,sans-Serif" font-size="10.00">multiply()</text>
<text text-anchor="start" x="12" y="-6.5" font-family="Helvetica,sans-Serif" font-size="10.00">+</text>
<text text-anchor="start" x="30" y="-6.5" font-family="Helvetica,sans-Serif" font-size="10.00">divide()</text>
<polygon fill="#666666" stroke="#666666" points="0,-82 0,-82 91,-82 91,-82 0,-82"/>
<polygon fill="#666666" stroke="#666666" points="0,-66 0,-66 91,-66 91,-66 0,-66"/>
<polygon fill="none" stroke="#666666" points="0,0 0,-112 91,-112 91,0 0,0"/>
</a>
</g>
</g>
</g>
</svg>
